<svg width="234" height="86" viewBox="0 0 234 86" fill="none" xmlns="http://www.w3.org/2000/svg">
<path opacity="0.35" d="M42.5303 85.5312C61.308 85.5312 76.5303 82.845 76.5303 79.5312C76.5303 76.2175 61.308 73.5312 42.5303 73.5312C23.7526 73.5312 8.53027 76.2175 8.53027 79.5312C8.53027 82.845 23.7526 85.5312 42.5303 85.5312Z" fill="#5055C0"/>
<path opacity="0.25" d="M41.5303 81.5312C55.8897 81.5312 67.5303 79.7404 67.5303 77.5312C67.5303 75.3221 55.8897 73.5312 41.5303 73.5312C27.1709 73.5312 15.5303 75.3221 15.5303 77.5312C15.5303 79.7404 27.1709 81.5312 41.5303 81.5312Z" fill="#5055C0"/>
<path d="M51.4939 2.50519L17.8248 7.23707C7.98045 8.62061 1.12158 17.7226 2.50512 27.567L7.237 61.2361C8.62054 71.0805 17.7226 77.9394 27.5669 76.5558L61.2361 71.8239C71.0804 70.4404 77.9393 61.3384 76.5558 51.494L71.8239 17.8249C70.4403 7.98052 61.3383 1.12165 51.4939 2.50519Z" fill="url(#paint0_linear_485_12517)"/>
<path d="M35.6337 11.8034C37.4429 24.6769 52.404 37.7216 65.2775 35.9124C52.404 37.7216 41.6181 54.3849 43.4274 67.2584C41.6181 54.3849 26.6571 41.3401 13.7836 43.1494C26.6571 41.3401 37.4429 24.6769 35.6337 11.8034Z" fill="white"/>
<path d="M216.886 39.9121H222.375L225.134 43.4618L227.849 46.6238L232.964 53.0371H226.939L223.419 48.7118L221.614 46.1465L216.886 39.9121ZM233.427 35.2587C233.427 38.5897 232.795 41.4235 231.533 43.7601C230.28 46.0968 228.57 47.8816 226.402 49.1145C224.244 50.3375 221.818 50.949 219.124 50.949C216.409 50.949 213.973 50.3326 211.815 49.0996C209.658 47.8667 207.952 46.0819 206.7 43.7452C205.447 41.4086 204.82 38.5797 204.82 35.2587C204.82 31.9277 205.447 29.0939 206.7 26.7573C207.952 24.4206 209.658 22.6408 211.815 21.4178C213.973 20.1848 216.409 19.5684 219.124 19.5684C221.818 19.5684 224.244 20.1848 226.402 21.4178C228.57 22.6408 230.28 24.4206 231.533 26.7573C232.795 29.0939 233.427 31.9277 233.427 35.2587ZM226.879 35.2587C226.879 33.101 226.556 31.2814 225.91 29.7999C225.273 28.3184 224.374 27.1948 223.21 26.4292C222.047 25.6635 220.685 25.2807 219.124 25.2807C217.562 25.2807 216.2 25.6635 215.037 26.4292C213.874 27.1948 212.969 28.3184 212.322 29.7999C211.686 31.2814 211.368 33.101 211.368 35.2587C211.368 37.4164 211.686 39.236 212.322 40.7175C212.969 42.199 213.874 43.3226 215.037 44.0882C216.2 44.8539 217.562 45.2367 219.124 45.2367C220.685 45.2367 222.047 44.8539 223.21 44.0882C224.374 43.3226 225.273 42.199 225.91 40.7175C226.556 39.236 226.879 37.4164 226.879 35.2587Z" fill="#9090F8"/>
<path d="M200.044 19.9863V50.5318H193.586V19.9863H200.044Z" fill="#9090F8"/>
<path d="M173.693 37.2873V50.5316H167.339V27.6225H173.394V31.6644H173.663C174.17 30.332 175.02 29.2781 176.213 28.5025C177.406 27.717 178.853 27.3242 180.553 27.3242C182.144 27.3242 183.531 27.6722 184.715 28.3683C185.898 29.0643 186.818 30.0586 187.474 31.3512C188.13 32.6339 188.458 34.1651 188.458 35.945V50.5316H182.104V37.0785C182.114 35.6765 181.756 34.5827 181.031 33.7972C180.305 33.0018 179.305 32.604 178.033 32.604C177.178 32.604 176.422 32.788 175.766 33.1559C175.119 33.5238 174.612 34.0607 174.244 34.7667C173.886 35.4627 173.703 36.3029 173.693 37.2873Z" fill="white"/>
<path d="M152.678 50.979C150.321 50.979 148.293 50.5018 146.592 49.5472C144.902 48.5827 143.599 47.2205 142.685 45.4606C141.77 43.6907 141.312 41.5977 141.312 39.1815C141.312 36.8249 141.77 34.7567 142.685 32.9769C143.599 31.1971 144.887 29.81 146.548 28.8157C148.218 27.8214 150.177 27.3242 152.424 27.3242C153.935 27.3242 155.342 27.5678 156.645 28.055C157.957 28.5323 159.101 29.2532 160.075 30.2177C161.06 31.1822 161.825 32.3952 162.372 33.8569C162.919 35.3086 163.192 37.0089 163.192 38.9577V40.7028H143.848V36.7653H157.212C157.212 35.8505 157.013 35.0401 156.615 34.3342C156.217 33.6282 155.665 33.0763 154.96 32.6786C154.263 32.271 153.453 32.0671 152.528 32.0671C151.564 32.0671 150.709 32.2908 149.963 32.7383C149.227 33.1758 148.651 33.7674 148.233 34.5131C147.815 35.2489 147.602 36.0692 147.592 36.9741V40.7177C147.592 41.8512 147.8 42.8306 148.218 43.6559C148.646 44.4812 149.247 45.1175 150.023 45.565C150.798 46.0124 151.718 46.2361 152.782 46.2361C153.488 46.2361 154.134 46.1367 154.721 45.9379C155.308 45.739 155.81 45.4407 156.227 45.043C156.645 44.6452 156.963 44.158 157.182 43.5813L163.058 43.9691C162.76 45.381 162.148 46.614 161.224 47.668C160.309 48.712 159.126 49.5273 157.674 50.114C156.232 50.6907 154.567 50.979 152.678 50.979Z" fill="white"/>
<path d="M127.938 50.979C125.591 50.979 123.573 50.4819 121.882 49.4876C120.202 48.4833 118.909 47.0913 118.004 45.3114C117.11 43.5316 116.662 41.4833 116.662 39.1665C116.662 36.82 117.115 34.7617 118.019 32.9918C118.934 31.212 120.232 29.8249 121.912 28.8306C123.593 27.8263 125.591 27.3242 127.908 27.3242C129.906 27.3242 131.656 27.6871 133.158 28.413C134.659 29.1388 135.847 30.158 136.722 31.4705C137.597 32.783 138.08 34.3242 138.169 36.0941H132.173C132.004 34.9506 131.557 34.0309 130.831 33.3349C130.115 32.6289 129.176 32.2759 128.012 32.2759C127.028 32.2759 126.168 32.5444 125.432 33.0813C124.706 33.6083 124.139 34.3789 123.732 35.3931C123.324 36.4073 123.12 37.6353 123.12 39.0771C123.12 40.5387 123.319 41.7816 123.717 42.8058C124.124 43.8299 124.696 44.6104 125.432 45.1474C126.168 45.6843 127.028 45.9528 128.012 45.9528C128.738 45.9528 129.389 45.8036 129.966 45.5053C130.553 45.207 131.035 44.7745 131.413 44.2077C131.801 43.631 132.054 42.94 132.173 42.1346H138.169C138.07 43.8846 137.593 45.4258 136.737 46.7582C135.892 48.0806 134.724 49.1147 133.232 49.8604C131.741 50.6062 129.976 50.979 127.938 50.979Z" fill="white"/>
<path d="M106.756 28.7708C106.637 27.5676 106.124 26.633 105.22 25.9668C104.315 25.3006 103.087 24.9675 101.536 24.9675C100.482 24.9675 99.5918 25.1167 98.8659 25.415C98.1401 25.7033 97.5833 26.106 97.1955 26.623C96.8176 27.1401 96.6287 27.7267 96.6287 28.383C96.6088 28.9299 96.7232 29.4071 96.9718 29.8148C97.2303 30.2225 97.5833 30.5755 98.0307 30.8738C98.4782 31.1621 98.9952 31.4157 99.5819 31.6344C100.169 31.8432 100.795 32.0222 101.461 32.1713L104.205 32.8276C105.538 33.1259 106.761 33.5236 107.874 34.0208C108.988 34.5179 109.953 35.1294 110.768 35.8553C111.583 36.5811 112.215 37.4363 112.662 38.4206C113.119 39.405 113.353 40.5336 113.363 41.8063C113.353 43.6756 112.876 45.2963 111.931 46.6685C110.997 48.0307 109.644 49.0897 107.874 49.8453C106.115 50.5911 103.992 50.964 101.506 50.964C99.04 50.964 96.8922 50.5861 95.0627 49.8304C93.2431 49.0748 91.8212 47.9561 90.7971 46.4746C89.7828 44.9831 89.2509 43.1387 89.2012 40.9412H95.4505C95.5201 41.9654 95.8134 42.8205 96.3304 43.5066C96.8574 44.1827 97.5584 44.6948 98.4334 45.0428C99.3184 45.3809 100.318 45.5499 101.431 45.5499C102.525 45.5499 103.475 45.3908 104.28 45.0726C105.095 44.7544 105.727 44.312 106.174 43.7452C106.622 43.1784 106.845 42.5272 106.845 41.7914C106.845 41.1053 106.642 40.5286 106.234 40.0613C105.836 39.5939 105.249 39.1962 104.474 38.8681C103.708 38.54 102.769 38.2417 101.655 37.9732L98.329 37.138C95.7537 36.5115 93.7203 35.5321 92.2289 34.1998C90.7374 32.8674 89.9966 31.0726 90.0066 28.8155C89.9966 26.9661 90.4888 25.3503 91.4831 23.9682C92.4874 22.5861 93.8645 21.5073 95.6145 20.7317C97.3645 19.9561 99.3532 19.5684 101.58 19.5684C103.847 19.5684 105.826 19.9561 107.517 20.7317C109.217 21.5073 110.539 22.5861 111.484 23.9682C112.428 25.3503 112.916 26.9512 112.945 28.7708H106.756Z" fill="white"/>
<defs>
<linearGradient id="paint0_linear_485_12517" x1="0" y1="9.74219" x2="79.0609" y2="69.3188" gradientUnits="userSpaceOnUse">
<stop stop-color="#8485F8"/>
<stop offset="1" stop-color="#4F52D8"/>
</linearGradient>
</defs>
</svg>
